<svg width="25" height="25" viewBox="0 0 25 25" fill="none" xmlns="http://www.w3.org/2000/svg">
<path d="M10.8194 18.4583C11.3611 19 12.2361 19 12.7778 18.4583L17.7639 13.4722C17.8926 13.3437 17.9948 13.1911 18.0645 13.0231C18.1342 12.8551 18.1701 12.675 18.1701 12.4931C18.1701 12.3112 18.1342 12.131 18.0645 11.963C17.9948 11.795 17.8926 11.6424 17.7639 11.5139L12.7778 6.52778C12.5181 6.26809 12.1659 6.12219 11.7986 6.12219C11.4314 6.12219 11.0791 6.26809 10.8194 6.52778C10.5598 6.78747 10.4139 7.13969 10.4139 7.50694C10.4139 7.8742 10.5598 8.22642 10.8194 8.48611L13.4306 11.1111H1.38889C0.625 11.1111 0 11.7361 0 12.5C0 13.2639 0.625 13.8889 1.38889 13.8889H13.4306L10.8194 16.5C10.2778 17.0417 10.2917 17.9306 10.8194 18.4583ZM22.2222 0H2.77778C2.04107 0 1.33453 0.292658 0.813592 0.813592C0.292658 1.33453 0 2.04107 0 2.77778V6.94444C0 7.70833 0.625 8.33333 1.38889 8.33333C2.15278 8.33333 2.77778 7.70833 2.77778 6.94444V4.16667C2.77778 3.40278 3.40278 2.77778 4.16667 2.77778H20.8333C21.5972 2.77778 22.2222 3.40278 22.2222 4.16667V20.8333C22.2222 21.5972 21.5972 22.2222 20.8333 22.2222H4.16667C3.40278 22.2222 2.77778 21.5972 2.77778 20.8333V18.0556C2.77778 17.2917 2.15278 16.6667 1.38889 16.6667C0.625 16.6667 0 17.2917 0 18.0556V22.2222C0 23.75 1.25 25 2.77778 25H22.2222C23.75 25 25 23.75 25 22.2222V2.77778C25 1.25 23.75 0 22.2222 0Z" fill="#5D6D97"/>
</svg>
