<svg width="25" height="25" viewBox="0 0 25 25" fill="none" xmlns="http://www.w3.org/2000/svg">
<path d="M12.5 0C10.2376 0 8.14616 0.557454 6.22559 1.67236C4.30501 2.78727 2.78727 4.30501 1.67236 6.22559C0.557454 8.14616 0 10.2376 0 12.5C0 14.7624 0.557454 16.8538 1.67236 18.7744C2.78727 20.695 4.30501 22.2127 6.22559 23.3276C8.14616 24.4425 10.2376 25 12.5 25C14.7624 25 16.8538 24.4425 18.7744 23.3276C20.695 22.2127 22.2127 20.695 23.3276 18.7744C24.4425 16.8538 25 14.7624 25 12.5C25 10.2376 24.4425 8.14616 23.3276 6.22559C22.2127 4.30501 20.695 2.78727 18.7744 1.67236C16.8538 0.557454 14.7624 0 12.5 0ZM15.625 2.02637C16.5039 2.28678 17.334 2.65299 18.1152 3.125C18.8965 3.59701 19.6004 4.14632 20.2271 4.77295C20.8537 5.39958 21.403 6.10352 21.875 6.88477C22.347 7.66602 22.7132 8.49609 22.9736 9.375H17.8955C17.3421 8.41471 16.5853 7.65788 15.625 7.10449V2.02637ZM17.1875 12.5C17.1875 13.8021 16.7277 14.9089 15.8081 15.8203C14.8885 16.7318 13.7858 17.1875 12.5 17.1875C11.6536 17.1875 10.8724 16.98 10.1562 16.5649C9.4401 16.1499 8.87044 15.5802 8.44727 14.856C8.02409 14.1317 7.8125 13.3464 7.8125 12.5C7.8125 11.2142 8.2723 10.1115 9.19189 9.19189C10.1115 8.2723 11.2142 7.8125 12.5 7.8125C13.3464 7.8125 14.1276 8.02409 14.8438 8.44727C15.5599 8.87044 16.1296 9.4401 16.5527 10.1562C16.9759 10.8724 17.1875 11.6536 17.1875 12.5ZM10.9375 1.68457C11.4583 1.60319 11.9792 1.5625 12.5 1.5625C13.0208 1.5625 13.5417 1.60319 14.0625 1.68457V6.46973C13.5417 6.32324 13.0249 6.25 12.5122 6.25C11.9995 6.25 11.4746 6.32324 10.9375 6.46973V1.68457ZM9.375 2.02637V7.10449C8.903 7.38119 8.47575 7.71077 8.09326 8.09326C7.71077 8.47575 7.38119 8.903 7.10449 9.375H2.02637C2.75879 6.91732 4.18294 4.96419 6.29883 3.51562C7.25911 2.84831 8.2845 2.35189 9.375 2.02637ZM1.5625 12.5C1.5625 12.3698 1.56657 12.2396 1.57471 12.1094L1.59912 11.7188L1.63574 11.3281L1.68457 10.9375H6.46973C6.32324 11.4583 6.25 11.9792 6.25 12.5C6.25 13.0208 6.3151 13.5417 6.44531 14.0625H1.68457C1.60319 13.5091 1.5625 12.9883 1.5625 12.5ZM9.375 22.9736C7.61719 22.4528 6.08317 21.5373 4.77295 20.2271C3.46273 18.9168 2.5472 17.3828 2.02637 15.625H7.10449C7.65788 16.5853 8.41471 17.3421 9.375 17.8955V22.9736ZM14.0625 23.3154C13.5417 23.3968 13.0208 23.4375 12.5 23.4375C11.9792 23.4375 11.4583 23.3968 10.9375 23.3154V18.5547C11.4746 18.6849 11.9995 18.75 12.5122 18.75C13.0249 18.75 13.5417 18.6849 14.0625 18.5547V23.3154ZM15.625 22.9736V17.8955C16.5853 17.3421 17.3421 16.5853 17.8955 15.625H22.9736C22.6156 16.7969 22.0866 17.8752 21.3867 18.8599C20.6868 19.8446 19.8446 20.6909 18.8599 21.3989C17.8752 22.1069 16.7969 22.6318 15.625 22.9736ZM18.5547 14.0625C18.6198 13.8021 18.6686 13.5417 18.7012 13.2812C18.7337 13.0208 18.75 12.7604 18.75 12.5C18.75 11.9792 18.6768 11.4583 18.5303 10.9375H23.3154C23.3968 11.4909 23.4375 12.0117 23.4375 12.5C23.4375 12.9883 23.3968 13.5091 23.3154 14.0625H18.5547Z" fill="#AEB6CB"/>
</svg>
