<svg width="25" height="25" viewBox="0 0 25 25" fill="none" xmlns="http://www.w3.org/2000/svg">
<path d="M12.5 0C10.0277 0 7.61099 0.733112 5.55538 2.10663C3.49976 3.48015 1.89761 5.43238 0.951511 7.71646C0.00541604 10.0005 -0.242126 12.5139 0.24019 14.9386C0.722505 17.3634 1.91301 19.5907 3.66117 21.3388C5.40933 23.087 7.63661 24.2775 10.0614 24.7598C12.4861 25.2421 14.9995 24.9946 17.2835 24.0485C19.5676 23.1024 21.5199 21.5002 22.8934 19.4446C24.2669 17.389 25 14.9723 25 12.5C25 9.18479 23.683 6.00537 21.3388 3.66116C18.9946 1.31696 15.8152 0 12.5 0ZM7.14286 21.7679V19.9821C7.10365 19.2282 7.3626 18.489 7.86378 17.9244C8.36495 17.3597 9.06813 17.0148 9.82143 16.9643H15.1786C15.9335 17.0148 16.6381 17.3609 17.1395 17.9275C17.6409 18.4942 17.8988 19.2356 17.8571 19.9911V21.7768C16.2308 22.7242 14.3822 23.2234 12.5 23.2234C10.6178 23.2234 8.76924 22.7242 7.14286 21.7768V21.7679ZM19.6429 20.4643V19.9196C19.6672 18.7024 19.2133 17.524 18.3787 16.6376C17.544 15.7512 16.3951 15.2274 15.1786 15.1786H9.82143C8.6041 15.2251 7.45384 15.7483 6.61871 16.6352C5.78358 17.5221 5.33049 18.7017 5.35715 19.9196V20.4464C3.73979 18.9998 2.59979 17.0962 2.088 14.9875C1.57621 12.8788 1.71674 10.6644 2.49102 8.63738C3.26529 6.61031 4.6368 4.8661 6.42406 3.63557C8.21132 2.40504 10.3301 1.74619 12.5 1.74619C14.6699 1.74619 16.7887 2.40504 18.5759 3.63557C20.3632 4.8661 21.7347 6.61031 22.509 8.63738C23.2833 10.6644 23.4238 12.8788 22.912 14.9875C22.4002 17.0962 21.2602 18.9998 19.6429 20.4464V20.4643Z" fill="#AEB6CB"/>
<path d="M12.5 4.46436C11.617 4.46436 10.7539 4.72618 10.0198 5.21672C9.28562 5.70726 8.71342 6.40449 8.37553 7.22023C8.03764 8.03597 7.94923 8.93359 8.12149 9.79958C8.29374 10.6656 8.71893 11.461 9.34327 12.0854C9.96761 12.7097 10.7631 13.1349 11.6291 13.3071C12.495 13.4794 13.3927 13.391 14.2084 13.0531C15.0241 12.7152 15.7214 12.143 16.2119 11.4089C16.7025 10.6747 16.9643 9.81159 16.9643 8.92864C16.9643 7.74464 16.4939 6.60913 15.6567 5.77191C14.8195 4.9347 13.684 4.46436 12.5 4.46436ZM12.5 11.6072C11.9702 11.6072 11.4523 11.4501 11.0119 11.1558C10.5714 10.8615 10.2281 10.4431 10.0253 9.95368C9.82258 9.46424 9.76954 8.92567 9.87289 8.40608C9.97624 7.88648 10.2314 7.40921 10.606 7.0346C10.9806 6.66 11.4578 6.40489 11.9774 6.30154C12.497 6.19818 13.0356 6.25123 13.525 6.45396C14.0145 6.6567 14.4328 7.00002 14.7271 7.44051C15.0215 7.88099 15.1786 8.39887 15.1786 8.92864C15.1786 9.63904 14.8964 10.3203 14.394 10.8227C13.8917 11.325 13.2104 11.6072 12.5 11.6072Z" fill="#AEB6CB"/>
</svg>
